<?xml version="1.0" encoding="utf-8"?>
<!-- Generator: Adobe Illustrator 24.0.1, SVG Export Plug-In . SVG Version: 6.00 Build 0)  -->
<svg version="1.1" id="Capa_1" xmlns="http://www.w3.org/2000/svg" xmlns:xlink="http://www.w3.org/1999/xlink" x="0px" y="0px"
	 viewBox="0 0 462.52 462.52" style="enable-background:new 0 0 462.52 462.52;" xml:space="preserve">
<style type="text/css">
	.st0{fill:#FFFFFF;}
</style>
<path class="st0" d="M432.96,222.26c-1.45-0.3-2.82-0.59-4.04-0.91c-13.82-3.59-20.13-5.56-24.79-14.57l-17.67-35.77
	c-5.68-10.96-20.34-19.88-32.68-19.88h-31.45v-41.3c0-7.42-6.03-13.45-13.45-13.45L89.8,96.6c-7.22,0-12.66,5.74-12.66,13.34v12.21
	H21.02C9.43,122.16,0,131.58,0,143.17s9.43,21.02,21.02,21.02h56.12v20.15H40.39c-11.59,0-21.02,9.43-21.02,21.02
	s9.43,21.02,21.02,21.02h36.74v20.15H59.77c-11.59,0-21.02,9.43-21.02,21.02s9.43,21.02,21.02,21.02h17.37v21.07
	c0,7.42,6.03,13.45,13.45,13.45h22.79c3.55,24.32,24.54,43.06,49.84,43.06c25.3,0,46.29-18.74,49.84-43.06h92.22
	c0.48,0,0.97-0.03,1.46-0.06c3.52,24.35,24.53,43.13,49.85,43.13c25.3,0,46.29-18.74,49.84-43.06h32.73
	c12.89,0,23.37-10.48,23.37-23.37v-39.65C462.52,228.46,444.73,224.73,432.96,222.26z M356.58,297.46c10.1,0,18.32,8.21,18.32,18.31
	s-8.22,18.31-18.32,18.31c-10.1,0-18.31-8.21-18.31-18.31S346.49,297.46,356.58,297.46z M322.32,219.41v-48.77h24.04
	c9.24,0,20.63,6.93,24.86,15.09l15.72,31.83c0.33,0.64,0.68,1.26,1.04,1.85L322.32,219.41L322.32,219.41z M181.53,315.77
	c0,10.1-8.22,18.31-18.32,18.31c-10.1,0-18.31-8.21-18.31-18.31s8.21-18.31,18.31-18.31C173.31,297.46,181.53,305.67,181.53,315.77z
	"/>
</svg>
