<?xml version="1.0" encoding="utf-8"?>
<!-- Generator: Adobe Illustrator 24.0.1, SVG Export Plug-In . SVG Version: 6.00 Build 0)  -->
<svg version="1.1" id="Layer_1" xmlns="http://www.w3.org/2000/svg" xmlns:xlink="http://www.w3.org/1999/xlink" x="0px" y="0px"
	 viewBox="0 0 213.17 96.48" style="enable-background:new 0 0 213.17 96.48;" xml:space="preserve">
<style type="text/css">
	.st0{fill-rule:evenodd;clip-rule:evenodd;fill:#EF4923;}
	.st1{fill:#EF4923;}
	.st2{fill:#2B398F;}
	.st3{fill:#FFFFFF;}
	.st4{fill:none;stroke:#FFFFFF;stroke-width:0.7039;}
	.st5{fill:#050505;}
	.st6{font-family:'Arial-BoldItalicMT';}
	.st7{font-size:7.782px;}
	.st8{fill:#231F20;}
</style>
<g>
	<g>
		<g>
			<path class="st0" d="M199.81,55.95c0.06,0.02,0.11,0.04,0.16,0.06c-0.04-0.02-0.08-0.03-0.12-0.05L199.81,55.95z M199.97,56
				c6.43,2.65,10.06,5.65,10.06,8.83c0,10.8-41.93,19.55-93.65,19.55c-51.72,0-93.65-8.75-93.65-19.55c0-3.18,3.63-6.18,10.08-8.84
				l0,0c-8.4,2.99-13.22,6.48-13.22,10.2c0,11.16,43.33,20.21,96.79,20.21c53.46,0,96.79-9.05,96.79-20.21
				C213.17,62.48,208.36,58.99,199.97,56z"/>
		</g>
	</g>
	<g>
		<path class="st1" d="M11.16,27.32c-3.11,0-5.71,0.63-7.8,1.89C1.12,30.56,0,32.36,0,34.61c0,2.23,1.12,4.02,3.36,5.37
			c2.09,1.27,4.69,1.9,7.8,1.9h14.03c0.91,0,1.72,0.11,2.41,0.34c0.91,0.32,1.38,0.79,1.38,1.4c0,0.59-0.46,1.06-1.38,1.39
			c-0.71,0.28-1.51,0.41-2.4,0.41H5.49L0,51.69h25.22c3.37,0,6.14-0.71,8.33-2.14c2.35-1.48,3.51-3.44,3.51-5.85
			c0-2.44-1.15-4.42-3.47-5.96c-2.24-1.44-5.03-2.16-8.37-2.16H11.2c-1.05,0-1.57-0.33-1.57-1c0-0.66,0.52-1,1.57-1h30.84v18.1h8.51
			V33.6h8.28l5.56-6.28H11.16"/>
	</g>
	<g>
		<g>
			<g>
				<polygon class="st2" points="102.33,54.1 101.3,59.5 107.45,59.5 104.23,76.09 110.37,76.09 113.6,59.5 120.03,59.5 
					121.04,54.1 				"/>
			</g>
		</g>
		<g>
			<g>
				<polygon class="st2" points="138.93,58.82 139.84,54.1 123.66,54.1 119.44,76.09 136.44,76.09 137.41,71.08 126.51,71.08 
					127.35,66.78 137.02,66.78 137.91,62.32 128.23,62.32 128.89,58.82 				"/>
			</g>
		</g>
		<g>
			<g>
				<path class="st2" d="M152.25,70.47c-0.65,0.66-1.43,0.98-2.37,0.98c-1.02,0-1.79-0.37-2.33-1.1c-0.53-0.74-0.79-1.65-0.79-2.74
					c0-1.43,0.26-2.9,0.77-4.41c0.52-1.51,1.2-2.63,2.06-3.37c0.86-0.73,1.74-1.1,2.64-1.1c0.69,0,1.32,0.26,1.9,0.78
					c0.57,0.52,0.86,1.32,0.86,2.39v0.12l5.62-0.71c-0.23-2.28-1.06-4.12-2.51-5.51c-1.45-1.39-3.41-2.09-5.9-2.09
					c-2.41,0-4.47,0.62-6.18,1.86c-1.72,1.24-3.03,2.94-3.92,5.11c-0.9,2.17-1.34,4.33-1.34,6.48c0,2.81,0.75,5.06,2.26,6.75
					c1.5,1.69,3.68,2.54,6.54,2.54c2.74,0,4.96-0.77,6.66-2.33c1.7-1.54,2.86-3.46,3.45-5.73l-5.72-0.99
					C153.45,68.8,152.89,69.81,152.25,70.47z"/>
			</g>
		</g>
		<g>
			<g>
				<polygon class="st2" points="177.99,54.1 176.44,61.87 169.82,61.87 171.32,54.1 165.18,54.1 160.93,76.09 167.12,76.09 
					168.81,67.15 175.43,67.15 173.73,76.09 179.87,76.09 184.12,54.1 				"/>
			</g>
		</g>
	</g>
	<g>
		<path class="st2" d="M75.59,37.27c14.72-24.69,41.06-32.47,66.8-30c23.84,1.85,49.07,23.44,61.02,40.97
			c-14.18-24.77-37.66-45.6-68.66-48.01l0,0C106.23-1.98,80.65,11.92,64.77,32.5c0,0-4.96,5.84-0.48,9.46
			c4.11,3.32,11.42-4.63,11.42-4.63"/>
	</g>
	<g>
		<path class="st1" d="M132.46,44.5c2.14-0.74,3.81-1.8,5.02-3.19c1.21-1.39,1.82-2.94,1.82-4.65c0-3.04-1.5-5.39-4.52-7.03
			c-2.68-1.44-6.17-2.16-10.48-2.16h-2.73v-0.03l-7.73,0.03h-6.95l-0.02,0.03l-8.09,0.03v0H88.31l4.32,6.26l3.61,0v0h25.33v-0.03
			h3.54c3.6,0,5.4,0.95,5.4,2.86c0,0.98-0.6,1.72-1.81,2.21c-0.94,0.39-2.14,0.58-3.6,0.58h-23.8v12.44h8.51v-6.16h11.8l8.37,6.16
			h12.45L132.46,44.5"/>
	</g>
	<g>
		<polyline class="st1" points="99.14,51.94 98.64,51.31 81.89,27.27 70.82,27.26 70.64,27.52 70.64,27.52 54.79,50.02 53.22,51.94 
			53.41,51.94 53.33,52.03 53.37,52.03 53.36,52.06 55.22,52.03 67.68,52.03 70.35,44.21 70.25,44.21 70.37,44.06 66.69,40.8 
			73.37,40.06 76.45,34.83 79.31,40.15 85.95,41.11 82.18,44.22 82.21,44.25 81.9,44.51 81.89,44.51 81.89,44.51 81.89,44.52 
			81.9,44.53 84.56,51.94 98.91,51.94 98.91,51.94 99.14,51.94 		"/>
	</g>
	<g>
		<g>
			<polygon class="st3" points="87.39,40.02 79.65,38.99 76.19,32.57 72.72,38.99 64.98,40.02 70.58,45.03 69.26,52.09 76.19,48.75 
				83.11,52.09 81.79,45.03 			"/>
		</g>
	</g>
	<g>
		<polygon class="st4" points="76.19,32.57 79.65,38.99 87.39,40.02 81.79,45.03 83.11,52.09 76.19,48.75 69.26,52.09 70.58,45.03 
			64.98,40.02 72.72,38.99 		"/>
	</g>
	<g>
		<g>
			<polygon class="st2" points="86.27,40.26 79.3,39.32 76.19,33.54 73.07,39.32 66.1,40.26 71.14,44.76 69.95,51.11 76.19,48.11 
				82.41,51.11 81.22,44.76 			"/>
		</g>
	</g>
	<g>
		<text transform="matrix(1 0 0 1 102.9245 93.5493)" class="st5 st6 st7">T</text>
		<text transform="matrix(1 0 0 1 107.5387 93.5493)" class="st5 st6 st7">O</text>
		<text transform="matrix(1 0 0 1 113.5905 93.5493)" class="st5 st6 st7">T</text>
		<text transform="matrix(1 0 0 1 117.7682 93.5493)" class="st5 st6 st7">A</text>
		<text transform="matrix(1 0 0 1 123.3883 93.5493)" class="st5 st6 st7">L</text>
		<text transform="matrix(1 0 0 1 127.9987 93.5493)" class="st8 st6 st7"> IT SOLUTION</text>
	</g>
</g>
</svg>
