<?xml version="1.0" encoding="utf-8"?>
<!-- Generator: Adobe Illustrator 24.0.1, SVG Export Plug-In . SVG Version: 6.00 Build 0)  -->
<svg version="1.1" id="Capa_1" xmlns="http://www.w3.org/2000/svg" xmlns:xlink="http://www.w3.org/1999/xlink" x="0px" y="0px"
	 viewBox="0 0 454.66 454.66" style="enable-background:new 0 0 454.66 454.66;" xml:space="preserve">
<style type="text/css">
	.st0{fill:#FFFFFF;}
</style>
<g>
	<g>
		<path class="st0" d="M454.66,227.58l-38.91-50.69l8.7-62.98l-59.39-23.55L341.5,30.98l-62.98,8.7l-51.2-39.42l-50.69,38.91
			l-62.98-8.7L90.11,89.86l-59.39,23.55l8.7,62.98L0,227.58l38.91,50.69l-8.7,62.98L89.6,364.8l23.55,59.39l62.98-8.7l50.69,38.91
			l50.69-38.91l62.98,8.7l23.55-59.39l59.39-24.06l-8.7-62.98L454.66,227.58z M208.9,301.31l-75.78-62.46l16.38-19.97l56.32,46.08
			l96.26-111.1l19.46,16.9L208.9,301.31z"/>
	</g>
</g>
</svg>
